<svg width="24" height="24" viewBox="0 0 24 24" fill="none" xmlns="http://www.w3.org/2000/svg">
<path d="M12 23.25C18.2132 23.25 23.25 18.2132 23.25 12C23.25 5.7868 18.2132 0.75 12 0.75C5.7868 0.75 0.75 5.7868 0.75 12C0.75 18.2132 5.7868 23.25 12 23.25Z" stroke="#0F0F10" stroke-width="1.5" stroke-linecap="round" stroke-linejoin="round"/>
<path d="M3.75 12.75H6.75L9.01 7.10001C9.06689 6.95915 9.16527 6.83893 9.29207 6.75528C9.41888 6.67164 9.56812 6.62853 9.72 6.63168C9.87188 6.63482 10.0192 6.68407 10.1424 6.7729C10.2657 6.86172 10.359 6.98592 10.41 7.12901L13.702 16.454C13.7498 16.5894 13.8355 16.7082 13.9489 16.7964C14.0622 16.8845 14.1985 16.9382 14.3415 16.9512C14.4845 16.9641 14.6283 16.9358 14.7556 16.8694C14.883 16.8031 14.9886 16.7016 15.06 16.577L17.25 12.75H20.25" stroke="#0F0F10" stroke-width="1.5" stroke-linecap="round" stroke-linejoin="round"/>
</svg>
