<svg width="24" height="24" viewBox="0 0 24 24" fill="none" xmlns="http://www.w3.org/2000/svg">
<path d="M18.707 6C17.4918 4.64186 15.8928 3.68466 14.1217 3.25502C12.3507 2.82538 10.4909 2.94354 8.78839 3.59388C7.08591 4.24421 5.62099 5.39608 4.5874 6.89709C3.55382 8.39811 3.00027 10.1775 3 12V12.75" stroke="#0F0F10" stroke-width="1.5" stroke-linecap="round" stroke-linejoin="round"/>
<path d="M5.293 18C6.50824 19.3581 8.10717 20.3153 9.87826 20.745C11.6493 21.1746 13.5091 21.0565 15.2116 20.4061C16.9141 19.7558 18.379 18.6039 19.4126 17.1029C20.4462 15.6019 20.9997 13.8225 21 12V11.25" stroke="#0F0F10" stroke-width="1.5" stroke-linecap="round" stroke-linejoin="round"/>
<path d="M18.75 13.5L21 11.25L23.25 13.5" stroke="#0F0F10" stroke-width="1.5" stroke-linecap="round" stroke-linejoin="round"/>
<path d="M5.25 10.5L3 12.75L0.75 10.5" stroke="#0F0F10" stroke-width="1.5" stroke-linecap="round" stroke-linejoin="round"/>
</svg>
