<svg width="104" height="104" viewBox="0 0 104 104" fill="none" xmlns="http://www.w3.org/2000/svg">
<path d="M82.589 100.122L55.822 80.6563C54.7112 79.8489 53.3733 79.4139 52 79.4139C50.6267 79.4139 49.2888 79.8489 48.178 80.6563L21.411 100.122C20.9266 100.474 20.3544 100.685 19.7574 100.733C19.1605 100.78 18.562 100.662 18.0281 100.39C17.4942 100.119 17.0456 99.7058 16.7318 99.1957C16.4181 98.6857 16.2513 98.0988 16.25 97.5V9.75C16.25 8.02609 16.9348 6.37279 18.1538 5.15381C19.3728 3.93482 21.0261 3.25 22.75 3.25H81.25C82.9739 3.25 84.6272 3.93482 85.8462 5.15381C87.0652 6.37279 87.75 8.02609 87.75 9.75V97.5C87.7487 98.0988 87.582 98.6857 87.2682 99.1957C86.9544 99.7058 86.5058 100.119 85.9719 100.39C85.438 100.662 84.8396 100.78 84.2426 100.733C83.6456 100.685 83.0734 100.474 82.589 100.122V100.122Z" stroke="black" stroke-width="2.5" stroke-linecap="round" stroke-linejoin="round"/>
<path d="M71.5 33.8479L47.7967 57.5469C47.4952 57.8488 47.1372 58.0883 46.7431 58.2517C46.349 58.4151 45.9266 58.4992 45.5 58.4992C45.0734 58.4992 44.651 58.4151 44.2569 58.2517C43.8628 58.0883 43.5048 57.8488 43.2033 57.5469L35.75 50.0979" stroke="#EE4362" stroke-width="2.5" stroke-linecap="round" stroke-linejoin="round"/>
</svg>
