<svg width="64" height="64" viewBox="0 0 64 64" fill="none" xmlns="http://www.w3.org/2000/svg">
<g clip-path="url(#clip0)">
<path opacity="0.4" d="M32 64C25.671 64 19.4841 62.1232 14.2218 58.607C8.95938 55.0908 4.85786 50.0931 2.43585 44.2459C0.0138497 38.3986 -0.619857 31.9645 0.61487 25.7571C1.8496 19.5497 4.8973 13.8479 9.37258 9.3726C13.8479 4.89732 19.5497 1.84961 25.7571 0.614885C31.9645 -0.619842 38.3986 0.013865 44.2459 2.43587C50.0931 4.85787 55.0908 8.95939 58.607 14.2218C62.1232 19.4841 64 25.671 64 32C63.9905 40.484 60.616 48.6178 54.6169 54.6169C48.6178 60.616 40.484 63.9905 32 64ZM32 6.00001C26.8577 6.00001 21.8309 7.52489 17.5552 10.3818C13.2795 13.2387 9.94701 17.2994 7.97913 22.0502C6.01125 26.8011 5.49637 32.0289 6.49958 37.0724C7.5028 42.1159 9.97906 46.7486 13.6152 50.3848C17.2514 54.021 21.8841 56.4972 26.9277 57.5004C31.9712 58.5036 37.1989 57.9888 41.9498 56.0209C46.7006 54.053 50.7613 50.7205 53.6182 46.4448C56.4751 42.1692 58 37.1423 58 32C57.9921 25.1068 55.2502 18.4982 50.376 13.624C45.5018 8.74978 38.8932 6.00795 32 6.00001Z" fill="#EE4362"/>
<path d="M64 32H58C57.9921 25.1068 55.2502 18.4982 50.376 13.624C45.5018 8.74977 38.8932 6.00794 32 6V0C40.484 0.00952843 48.6178 3.38401 54.6169 9.38311C60.616 15.3822 63.9905 23.516 64 32Z" fill="#EE4362"/>
</g>
<defs>
<clipPath id="clip0">
<rect width="64" height="64" fill="white"/>
</clipPath>
</defs>
</svg>
