<svg width="16" height="16" viewBox="0 0 16 16" fill="none" xmlns="http://www.w3.org/2000/svg">
<g clip-path="url(#clip0)">
<path d="M6 6.00011C6.00007 5.63346 6.10093 5.27389 6.29155 4.96069C6.48217 4.64749 6.75522 4.39271 7.08085 4.22421C7.40649 4.05571 7.77218 3.97996 8.13795 4.00525C8.50372 4.03054 8.85551 4.15589 9.15486 4.36761C9.4542 4.57932 9.68959 4.86925 9.83529 5.2057C9.981 5.54215 10.0314 5.91219 9.98102 6.27535C9.93063 6.63852 9.78138 6.98085 9.54958 7.26493C9.31778 7.549 9.01235 7.76389 8.66667 7.88611C8.47161 7.95507 8.30275 8.08283 8.18335 8.25178C8.06395 8.42073 7.99989 8.62256 8 8.82944V9.50011" stroke="black" stroke-width="1.5" stroke-linecap="round" stroke-linejoin="round"/>
<path d="M8 11.5C7.95055 11.5 7.90222 11.5147 7.86111 11.5421C7.82 11.5696 7.78795 11.6086 7.76903 11.6543C7.75011 11.7 7.74516 11.7503 7.7548 11.7988C7.76445 11.8473 7.78826 11.8918 7.82322 11.9268C7.85819 11.9617 7.90273 11.9855 7.95123 11.9952C7.99972 12.0048 8.04999 11.9999 8.09567 11.981C8.14135 11.962 8.1804 11.93 8.20787 11.8889C8.23534 11.8478 8.25 11.7994 8.25 11.75C8.25 11.6837 8.22366 11.6201 8.17678 11.5732C8.12989 11.5263 8.0663 11.5 8 11.5Z" stroke="black" stroke-width="1.5" stroke-linecap="round" stroke-linejoin="round"/>
<path d="M8 15.5C12.1421 15.5 15.5 12.1421 15.5 8C15.5 3.85786 12.1421 0.5 8 0.5C3.85786 0.5 0.5 3.85786 0.5 8C0.5 12.1421 3.85786 15.5 8 15.5Z" stroke="black" stroke-width="1.5" stroke-miterlimit="10"/>
</g>
<defs>
<clipPath id="clip0">
<rect width="16" height="16" fill="white"/>
</clipPath>
</defs>
</svg>
