<svg width="47" height="25" viewBox="0 0 47 25" fill="none" xmlns="http://www.w3.org/2000/svg">
<g clip-path="url(#clip0)">
<path d="M2.57468 20.1324H3.22665L5.05096 24.3804H4.18965L3.79488 23.4084H1.9586L1.57579 24.3804H0.732422L2.57468 20.1324ZM3.5317 22.7604L2.87973 21.0324L2.2158 22.7604H3.5317ZM5.85938 20.1324H6.72664L7.88104 23.3424L9.07133 20.1324H9.8848L8.17413 24.3804H7.52216L5.85938 20.1324ZM12.5783 20.1324H13.2302L15.0545 24.3804H14.1932L13.7985 23.4084H11.9622L11.5794 24.3804H10.736L12.5783 20.1324ZM13.5353 22.7604L12.8833 21.0324L12.2194 22.7604H13.5353ZM16.7214 20.1324H17.4751V23.6964H19.2755V24.3804H16.7214V20.1324ZM22.3891 20.1324H23.041L24.8653 24.3804H24.004L23.6092 23.4084H21.773L21.3902 24.3804H20.5468L22.3891 20.1324ZM23.3461 22.7604L22.6941 21.0324L22.0302 22.7604H23.3461ZM26.5322 20.1324H27.5311L29.5827 23.2884H29.5947V20.1324H30.3483V24.3804H29.3913L27.2978 21.1224H27.2859V24.3804H26.5322V20.1324ZM35.396 21.1284C35.2405 20.9604 35.089 20.8484 34.9414 20.7924C34.7978 20.7364 34.6523 20.7084 34.5048 20.7084C34.2855 20.7084 34.0861 20.7484 33.9066 20.8284C33.7312 20.9044 33.5797 21.0124 33.452 21.1524C33.3245 21.2884 33.2248 21.4484 33.153 21.6324C33.0852 21.8164 33.0513 22.0144 33.0513 22.2264C33.0513 22.4544 33.0852 22.6644 33.153 22.8564C33.2248 23.0484 33.3245 23.2144 33.452 23.3544C33.5797 23.4944 33.7312 23.6044 33.9066 23.6844C34.0861 23.7644 34.2855 23.8044 34.5048 23.8044C34.6762 23.8044 34.8417 23.7644 35.0012 23.6844C35.1647 23.6004 35.3162 23.4684 35.4558 23.2884L36.0779 23.7324C35.8864 23.9964 35.6532 24.1884 35.378 24.3084C35.1029 24.4284 34.8098 24.4884 34.4988 24.4884C34.1718 24.4884 33.8707 24.4364 33.5956 24.3324C33.3245 24.2244 33.0892 24.0744 32.8898 23.8824C32.6944 23.6864 32.5409 23.4524 32.4292 23.1804C32.3176 22.9084 32.2618 22.6064 32.2618 22.2744C32.2618 21.9344 32.3176 21.6264 32.4292 21.3504C32.5409 21.0704 32.6944 20.8324 32.8898 20.6364C33.0892 20.4404 33.3245 20.2904 33.5956 20.1864C33.8707 20.0784 34.1718 20.0244 34.4988 20.0244C34.7859 20.0244 35.0511 20.0764 35.2943 20.1804C35.5416 20.2804 35.7708 20.4524 35.9822 20.6964L35.396 21.1284ZM37.78 20.1324H38.5336V21.8244H40.5134V20.1324H41.2671V24.3804H40.5134V22.5084H38.5336V24.3804H37.78V20.1324ZM43.4097 20.1324H46.2149V20.8164H44.1633V21.8604H46.1073V22.5444H44.1633V23.6964H46.3226V24.3804H43.4097V20.1324Z" fill="#151515"/>
<path d="M6.16218 16.7753H3.02836C2.28532 16.7753 1.9138 16.7753 1.6913 16.6308C1.45083 16.4747 1.29915 16.2127 1.28306 15.9258C1.26818 15.6603 1.45223 15.3366 1.82034 14.6892L8.68173 2.62085C9.05515 1.96399 9.24189 1.63555 9.47946 1.5133C9.73612 1.3812 10.0405 1.38097 10.2974 1.5127C10.5351 1.6346 10.7223 1.96276 11.0967 2.61908L12.6792 5.39305C12.9515 5.87031 13.0876 6.10893 13.1475 6.36071C13.2126 6.63477 13.2127 6.92032 13.1478 7.1944C13.0882 7.44622 12.9522 7.68502 12.6804 8.1625L8.57736 15.3689C8.30156 15.8534 8.16363 16.0956 7.97468 16.2767C7.76898 16.4738 7.51956 16.6191 7.24693 16.7005C6.99643 16.7753 6.71835 16.7753 6.16218 16.7753Z" fill="#151515"/>
<path d="M17.3426 16.7754H13.7093C12.9595 16.7754 12.5846 16.7754 12.3614 16.6297C12.1203 16.4723 11.969 16.2083 11.9548 15.9201C11.9415 15.6533 12.1302 15.3283 12.5075 14.6784L14.3212 11.5544C14.6938 10.9127 14.8801 10.5918 15.116 10.4716C15.3709 10.3417 15.6723 10.3415 15.9274 10.471C16.1635 10.5909 16.3502 10.9115 16.7237 11.5527L18.5433 14.6766C18.9221 15.327 19.1115 15.6522 19.0986 15.9191C19.0846 16.2077 18.9334 16.4718 18.6921 16.6295C18.4689 16.7754 18.0935 16.7754 17.3426 16.7754Z" fill="#151515"/>
<path d="M33.0762 16.7753H29.9424C29.1994 16.7753 28.8279 16.7753 28.6053 16.6308C28.3649 16.4747 28.2132 16.2127 28.1971 15.9258C28.1823 15.6603 28.3663 15.3366 28.7344 14.6892L35.5958 2.62085C35.9692 1.96399 36.156 1.63555 36.3935 1.5133C36.6502 1.3812 36.9546 1.38097 37.2114 1.5127C37.4492 1.6346 37.6364 1.96276 38.0108 2.61908L39.5933 5.39305C39.8655 5.87031 40.0017 6.10893 40.0615 6.36071C40.1267 6.63477 40.1268 6.92032 40.0619 7.1944C40.0023 7.44622 39.8663 7.68502 39.5945 8.1625L35.4914 15.3689C35.2156 15.8534 35.0777 16.0956 34.8888 16.2767C34.6831 16.4738 34.4336 16.6191 34.161 16.7005C33.9105 16.7753 33.6324 16.7753 33.0762 16.7753Z" fill="#151515"/>
<path d="M44.2576 16.7754H40.6243C39.8745 16.7754 39.4996 16.7754 39.2765 16.6297C39.0353 16.4723 38.884 16.2083 38.8698 15.9201C38.8566 15.6533 39.0452 15.3283 39.4226 14.6784L41.2363 11.5544C41.6088 10.9127 41.7951 10.5918 42.031 10.4716C42.2859 10.3417 42.5873 10.3415 42.8424 10.471C43.0784 10.5909 43.2652 10.9115 43.6387 11.5527L45.4584 14.6766C45.8372 15.327 46.0265 15.6522 46.0136 15.9191C45.9996 16.2077 45.8485 16.4718 45.6072 16.6295C45.3839 16.7754 45.0085 16.7754 44.2576 16.7754Z" fill="#151515"/>
<path d="M19.758 0.919922H16.5431C15.8007 0.919921 15.4295 0.919921 15.2071 1.06428C14.9667 1.22029 14.815 1.48203 14.7987 1.76877C14.7836 2.03409 14.9672 2.35769 15.3344 3.00489L22.1699 15.0537C22.5511 15.7254 22.7416 16.0614 22.9824 16.1837C23.2425 16.3159 23.5504 16.3131 23.8081 16.1761C24.0465 16.0493 24.2309 15.71 24.5996 15.0313L26.237 12.0178C26.4955 11.5422 26.6247 11.3043 26.6795 11.0549C26.7392 10.7834 26.7354 10.5017 26.6684 10.2319C26.6068 9.98409 26.4712 9.74985 26.2 9.28143L22.1631 2.30875C21.886 1.83012 21.7475 1.59081 21.5589 1.41195C21.3536 1.21728 21.1054 1.07398 20.8346 0.993688C20.5857 0.919922 20.3097 0.919922 19.758 0.919922Z" fill="#151515"/>
<path d="M30.8634 0.919922H27.2249C26.4758 0.919922 26.1013 0.919922 25.8782 1.0655C25.6371 1.22282 25.4858 1.48653 25.4714 1.77466C25.458 2.0413 25.6461 2.36614 26.0226 3.01583L27.8388 6.151C28.2115 6.79429 28.3978 7.11595 28.6339 7.23631C28.889 7.36645 29.1907 7.36663 29.446 7.23691C29.6822 7.11685 29.869 6.79549 30.2426 6.15272L32.0648 3.01756C32.4426 2.36747 32.6316 2.04243 32.6184 1.77559C32.6043 1.48724 32.453 1.22321 32.2119 1.06569C31.9887 0.919923 31.6136 0.919922 30.8634 0.919922Z" fill="#151515"/>
</g>
<defs>
<clipPath id="clip0">
<rect width="46.0564" height="24" fill="white" transform="translate(0.633789 0.5)"/>
</clipPath>
</defs>
</svg>
