<svg width="24" height="24" viewBox="0 0 24 24" fill="none" xmlns="http://www.w3.org/2000/svg">
<path fill-rule="evenodd" clip-rule="evenodd" d="M12.0011 8.90245e-06C9.15109 0.00212729 6.39471 1.0177 4.22462 2.8652C2.05452 4.7127 0.61216 7.27172 0.155323 10.0849C-0.301515 12.898 0.256948 15.782 1.7309 18.2213C3.20485 20.6605 5.49821 22.4961 8.2011 23.4C8.29436 23.4309 8.39371 23.4387 8.49066 23.4229C8.58762 23.4071 8.6793 23.368 8.75789 23.3091C8.83648 23.2501 8.89965 23.173 8.942 23.0844C8.98435 22.9958 9.00463 22.8982 9.0011 22.8V20.8C5.7011 21.5 5.0011 19.2 5.0011 19.2C4.79918 18.4628 4.33745 17.8235 3.7011 17.4C2.5011 16.7 3.7011 16.7 3.7011 16.7C4.07269 16.7498 4.42802 16.8837 4.73996 17.0917C5.05191 17.2997 5.31224 17.5761 5.5011 17.9C5.83864 18.4904 6.39363 18.9255 7.04757 19.1124C7.70151 19.2992 8.40258 19.223 9.0011 18.9C9.01654 18.5925 9.0956 18.2915 9.2333 18.0161C9.37101 17.7407 9.56435 17.4969 9.8011 17.3C7.1011 17 4.3011 16 4.3011 11.4C4.29784 10.2228 4.72456 9.08483 5.5011 8.20001C5.22683 7.13911 5.29687 6.0185 5.7011 5.00001C5.7011 5.00001 6.7011 4.70001 9.0011 6.20001C9.97602 5.92001 10.9869 5.78523 12.0011 5.80001C13.0153 5.78523 14.0262 5.92001 15.0011 6.20001C17.3011 4.60001 18.3011 5.00001 18.3011 5.00001C18.7564 6.01146 18.7923 7.1621 18.4011 8.20001C18.8055 8.62568 19.1201 9.12834 19.3262 9.67808C19.5324 10.2278 19.6259 10.8134 19.6011 11.4C19.6011 16 16.8011 17 14.1011 17.3C14.3747 17.5946 14.5865 17.9411 14.7239 18.319C14.8613 18.6969 14.9216 19.0984 14.9011 19.5V22.8C14.8976 22.8982 14.9179 22.9958 14.9602 23.0844C15.0026 23.173 15.0657 23.2501 15.1443 23.3091C15.2229 23.368 15.3146 23.4071 15.4115 23.4229C15.5085 23.4387 15.6078 23.4309 15.7011 23.4C18.0931 22.6035 20.1731 21.0731 21.6452 19.0265C23.1174 16.9798 23.9068 14.5211 23.9011 12C23.9162 10.4284 23.6194 8.86935 23.0279 7.41317C22.4365 5.95699 21.5621 4.63257 20.4554 3.51657C19.3487 2.40056 18.0316 1.51513 16.5805 0.911512C15.1293 0.307896 13.5728 -0.00191465 12.0011 8.90245e-06Z" fill="#0F0F10"/>
</svg>
