<svg width="28" height="28" viewBox="0 0 28 28" fill="none" xmlns="http://www.w3.org/2000/svg">
<path d="M28 0H0V28H28V0Z" fill="#0F0F10"/>
<path d="M6.63205 10.019C6.64354 9.90601 6.62826 9.7919 6.58743 9.68592C6.5466 9.57995 6.48138 9.48507 6.39705 9.409L4.65405 7.309V7H10.0671L14.2511 16.175L17.9291 7H23.0891V7.314L21.5991 8.743C21.536 8.79101 21.4872 8.8553 21.458 8.92894C21.4287 9.00259 21.4201 9.08282 21.4331 9.161V19.661C21.4201 19.7392 21.4287 19.8194 21.458 19.8931C21.4872 19.9667 21.536 20.031 21.5991 20.079L23.0551 21.508V21.822H15.7341V21.5L17.2421 20.036C17.39 19.888 17.3901 19.844 17.3901 19.618V11.131L13.1981 21.779H12.6311L7.74405 11.135V18.271C7.72392 18.4191 7.73778 18.5697 7.78456 18.7117C7.83134 18.8536 7.90982 18.9829 8.01405 19.09L9.97505 21.469V21.783H4.41406V21.469L6.37506 19.09C6.47846 18.9829 6.55523 18.8529 6.59918 18.7107C6.64313 18.5684 6.65301 18.4178 6.62805 18.271L6.63205 10.019Z" fill="white"/>
</svg>
