<svg width="23" height="27" viewBox="0 0 23 27" fill="none" xmlns="http://www.w3.org/2000/svg">
<path d="M22.692 26.095L16.735 20.421L17.45 22.69H2.835C2.08335 22.6892 1.36272 22.3903 0.831226 21.8588C0.299733 21.3273 0.000794132 20.6066 0 19.855V2.837C0 2.46444 0.0733812 2.09553 0.215954 1.75133C0.358526 1.40713 0.567497 1.09438 0.830936 0.830936C1.09438 0.567497 1.40712 0.358526 1.75132 0.215954C2.09552 0.0733812 2.46444 0 2.837 0H19.858C20.61 0.000530264 21.331 0.299695 21.8624 0.831707C22.3939 1.36372 22.6923 2.08502 22.692 2.837V26.095ZM11.345 6.578C9.53859 6.57048 7.75932 7.01753 6.171 7.878C7.13255 7.14015 8.22072 6.58403 9.382 6.237L9.189 6.044C7.86818 6.14999 6.60295 6.6216 5.535 7.406C4.37484 9.77107 3.75101 12.3631 3.708 14.997C4.17566 15.5966 4.77515 16.0805 5.45999 16.411C6.14482 16.7416 6.8966 16.9099 7.657 16.903L8.463 15.882C7.53897 15.6313 6.72456 15.0804 6.148 14.316C7.71555 15.2673 9.51436 15.7696 11.348 15.768C13.1816 15.7695 14.9804 15.2673 16.548 14.316C15.9714 15.0804 15.157 15.6313 14.233 15.882L15.039 16.903C15.7994 16.9099 16.5512 16.7416 17.236 16.411C17.9208 16.0805 18.5203 15.5966 18.988 14.997C18.945 12.3631 18.3212 9.77107 17.161 7.406C16.091 6.62069 14.8232 6.14937 13.5 6.045L13.307 6.238C14.4686 6.58625 15.5568 7.14373 16.518 7.883C14.9297 7.02253 13.1504 6.57548 11.344 6.583L11.345 6.578ZM8.995 10.883C9.1771 10.8895 9.35609 10.9321 9.52164 11.0083C9.68718 11.0844 9.836 11.1926 9.95948 11.3266C10.083 11.4606 10.1787 11.6177 10.2411 11.7889C10.3035 11.9601 10.3313 12.142 10.323 12.324C10.335 12.6892 10.203 13.0444 9.95556 13.3132C9.70809 13.582 9.36491 13.7428 9 13.761C8.63552 13.7413 8.29335 13.5793 8.0472 13.3097C7.80105 13.0402 7.67062 12.6848 7.684 12.32C7.6754 12.1389 7.70266 11.9578 7.76421 11.7873C7.82576 11.6167 7.92039 11.46 8.04266 11.3261C8.16494 11.1922 8.31245 11.0838 8.47674 11.0071C8.64102 10.9304 8.81885 10.8868 9 10.879L8.995 10.883ZM13.732 10.879C14.0992 10.8941 14.4453 11.0543 14.6943 11.3246C14.9434 11.5948 15.0749 11.9528 15.06 12.32C15.073 12.6867 14.9409 13.0437 14.6922 13.3135C14.4436 13.5833 14.0985 13.7441 13.732 13.761C13.3675 13.7413 13.0253 13.5793 12.7792 13.3097C12.5331 13.0402 12.4026 12.6848 12.416 12.32C12.4074 12.1392 12.4345 11.9585 12.4958 11.7882C12.5571 11.6179 12.6514 11.4613 12.7732 11.3275C12.8951 11.1937 13.0421 11.0852 13.206 11.0082C13.3698 10.9312 13.5472 10.8873 13.728 10.879H13.732Z" fill="#0F0F10"/>
</svg>
