<svg width="24" height="20" viewBox="0 0 24 20" fill="none" xmlns="http://www.w3.org/2000/svg">
<path d="M23.859 2.27835C22.9683 2.67946 22.0224 2.94475 21.053 3.06535C22.0738 2.45137 22.836 1.48655 23.197 0.35135C22.2391 0.923979 21.1908 1.32975 20.097 1.55135C19.6391 1.05502 19.082 0.660466 18.4618 0.393273C17.8416 0.126079 17.1722 -0.00778823 16.497 0.00035C15.2028 0.00485109 13.9632 0.52254 13.0502 1.43984C12.1372 2.35714 11.6254 3.59914 11.627 4.89335C11.6255 5.26793 11.6654 5.64153 11.746 6.00735C9.80134 5.90897 7.89901 5.40338 6.16211 4.5233C4.42521 3.64322 2.89244 2.40827 1.663 0.89835C1.22664 1.64181 0.996722 2.4883 0.997 3.35035C0.992824 4.15515 1.19044 4.94816 1.57179 5.65688C1.95315 6.3656 2.50606 6.96743 3.18 7.40735C2.40368 7.39851 1.64087 7.20301 0.955999 6.83735V6.87135C0.956418 8.00117 1.34726 9.09613 2.06234 9.97085C2.77743 10.8456 3.77282 11.4463 4.88 11.6714C4.16277 11.8681 3.40963 11.8955 2.68 11.7514C2.9895 12.7239 3.59606 13.5749 4.41437 14.1848C5.23268 14.7947 6.22159 15.1327 7.242 15.1514C5.51271 16.521 3.36894 17.2615 1.163 17.2514C0.774338 17.2514 0.386006 17.2287 0 17.1833C2.10345 18.5316 4.53102 19.2888 7.02795 19.3755C9.52488 19.4622 11.9991 18.8752 14.191 17.6761C16.3829 16.4771 18.2117 14.7102 19.4854 12.5608C20.7591 10.4114 21.4308 7.95879 21.43 5.46035C21.43 5.24335 21.43 5.03835 21.419 4.82135C22.3797 4.12848 23.2064 3.26682 23.859 2.27835Z" fill="#0F0F10"/>
</svg>
